<?xml version="1.0" encoding="utf-8" standalone="no"?>
<!DOCTYPE svg PUBLIC "-//W3C//DTD SVG 1.1//EN"
  "http://www.w3.org/Graphics/SVG/1.1/DTD/svg11.dtd">
<svg xmlns:xlink="http://www.w3.org/1999/xlink" width="431.96125pt" height="316.271687pt" viewBox="0 0 431.96125 316.271687" xmlns="http://www.w3.org/2000/svg" version="1.1">
 <metadata>
  <rdf:RDF xmlns:dc="http://purl.org/dc/elements/1.1/" xmlns:cc="http://creativecommons.org/ns#" xmlns:rdf="http://www.w3.org/1999/02/22-rdf-syntax-ns#">
   <cc:Work>
    <dc:type rdf:resource="http://purl.org/dc/dcmitype/StillImage"/>
    <dc:date>2023-09-21T14:35:01.707786</dc:date>
    <dc:format>image/svg+xml</dc:format>
    <dc:creator>
     <cc:Agent>
      <dc:title>Matplotlib v3.7.2, https://matplotlib.org/</dc:title>
     </cc:Agent>
    </dc:creator>
   </cc:Work>
  </rdf:RDF>
 </metadata>
 <defs>
  <style type="text/css">*{stroke-linejoin: round; stroke-linecap: butt}</style>
 </defs>
 <g id="figure_1">
  <g id="patch_1">
   <path d="M 0 316.271687 
L 431.96125 316.271687 
L 431.96125 0 
L 0 0 
z
" style="fill: #ffffff"/>
  </g>
  <g id="axes_1">
   <g id="patch_2">
    <path d="M 67.64125 273.312 
L 424.76125 273.312 
L 424.76125 7.2 
L 67.64125 7.2 
z
" style="fill: #eaeaf2"/>
   </g>
   <g id="matplotlib.axis_1">
    <g id="xtick_1">
     <g id="line2d_1">
      <path d="M 83.873977 273.312 
L 83.873977 7.2 
" clip-path="url(#p8011a5f155)" style="fill: none; stroke: #ffffff; stroke-linecap: round"/>
     </g>
     <g id="text_1">
      <!-- 1 -->
      <g style="fill: #262626" transform="translate(80.374602 291.170281) scale(0.11 -0.11)">
       <defs>
        <path id="DejaVuSans-31" d="M 794 531 
L 1825 531 
L 1825 4091 
L 703 3866 
L 703 4441 
L 1819 4666 
L 2450 4666 
L 2450 531 
L 3481 531 
L 3481 0 
L 794 0 
L 794 531 
z
" transform="scale(0.015625)"/>
       </defs>
       <use xlink:href="#DejaVuSans-31"/>
      </g>
     </g>
    </g>
    <g id="xtick_2">
     <g id="line2d_2">
      <path d="M 94.346705 273.312 
L 94.346705 7.2 
" clip-path="url(#p8011a5f155)" style="fill: none; stroke: #ffffff; stroke-linecap: round"/>
     </g>
     <g id="text_2">
      <!-- 2 -->
      <g style="fill: #262626" transform="translate(90.84733 291.170281) scale(0.11 -0.11)">
       <defs>
        <path id="DejaVuSans-32" d="M 1228 531 
L 3431 531 
L 3431 0 
L 469 0 
L 469 531 
Q 828 903 1448 1529 
Q 2069 2156 2228 2338 
Q 2531 2678 2651 2914 
Q 2772 3150 2772 3378 
Q 2772 3750 2511 3984 
Q 2250 4219 1831 4219 
Q 1534 4219 1204 4116 
Q 875 4013 500 3803 
L 500 4441 
Q 881 4594 1212 4672 
Q 1544 4750 1819 4750 
Q 2544 4750 2975 4387 
Q 3406 4025 3406 3419 
Q 3406 3131 3298 2873 
Q 3191 2616 2906 2266 
Q 2828 2175 2409 1742 
Q 1991 1309 1228 531 
z
" transform="scale(0.015625)"/>
       </defs>
       <use xlink:href="#DejaVuSans-32"/>
      </g>
     </g>
    </g>
    <g id="xtick_3">
     <g id="line2d_3">
      <path d="M 115.292159 273.312 
L 115.292159 7.2 
" clip-path="url(#p8011a5f155)" style="fill: none; stroke: #ffffff; stroke-linecap: round"/>
     </g>
     <g id="text_3">
      <!-- 4 -->
      <g style="fill: #262626" transform="translate(111.792784 291.170281) scale(0.11 -0.11)">
       <defs>
        <path id="DejaVuSans-34" d="M 2419 4116 
L 825 1625 
L 2419 1625 
L 2419 4116 
z
M 2253 4666 
L 3047 4666 
L 3047 1625 
L 3713 1625 
L 3713 1100 
L 3047 1100 
L 3047 0 
L 2419 0 
L 2419 1100 
L 313 1100 
L 313 1709 
L 2253 4666 
z
" transform="scale(0.015625)"/>
       </defs>
       <use xlink:href="#DejaVuSans-34"/>
      </g>
     </g>
    </g>
    <g id="xtick_4">
     <g id="line2d_4">
      <path d="M 157.183068 273.312 
L 157.183068 7.2 
" clip-path="url(#p8011a5f155)" style="fill: none; stroke: #ffffff; stroke-linecap: round"/>
     </g>
     <g id="text_4">
      <!-- 8 -->
      <g style="fill: #262626" transform="translate(153.683693 291.170281) scale(0.11 -0.11)">
       <defs>
        <path id="DejaVuSans-38" d="M 2034 2216 
Q 1584 2216 1326 1975 
Q 1069 1734 1069 1313 
Q 1069 891 1326 650 
Q 1584 409 2034 409 
Q 2484 409 2743 651 
Q 3003 894 3003 1313 
Q 3003 1734 2745 1975 
Q 2488 2216 2034 2216 
z
M 1403 2484 
Q 997 2584 770 2862 
Q 544 3141 544 3541 
Q 544 4100 942 4425 
Q 1341 4750 2034 4750 
Q 2731 4750 3128 4425 
Q 3525 4100 3525 3541 
Q 3525 3141 3298 2862 
Q 3072 2584 2669 2484 
Q 3125 2378 3379 2068 
Q 3634 1759 3634 1313 
Q 3634 634 3220 271 
Q 2806 -91 2034 -91 
Q 1263 -91 848 271 
Q 434 634 434 1313 
Q 434 1759 690 2068 
Q 947 2378 1403 2484 
z
M 1172 3481 
Q 1172 3119 1398 2916 
Q 1625 2713 2034 2713 
Q 2441 2713 2670 2916 
Q 2900 3119 2900 3481 
Q 2900 3844 2670 4047 
Q 2441 4250 2034 4250 
Q 1625 4250 1398 4047 
Q 1172 3844 1172 3481 
z
" transform="scale(0.015625)"/>
       </defs>
       <use xlink:href="#DejaVuSans-38"/>
      </g>
     </g>
    </g>
    <g id="xtick_5">
     <g id="line2d_5">
      <path d="M 240.964886 273.312 
L 240.964886 7.2 
" clip-path="url(#p8011a5f155)" style="fill: none; stroke: #ffffff; stroke-linecap: round"/>
     </g>
     <g id="text_5">
      <!-- 16 -->
      <g style="fill: #262626" transform="translate(233.966136 291.170281) scale(0.11 -0.11)">
       <defs>
        <path id="DejaVuSans-36" d="M 2113 2584 
Q 1688 2584 1439 2293 
Q 1191 2003 1191 1497 
Q 1191 994 1439 701 
Q 1688 409 2113 409 
Q 2538 409 2786 701 
Q 3034 994 3034 1497 
Q 3034 2003 2786 2293 
Q 2538 2584 2113 2584 
z
M 3366 4563 
L 3366 3988 
Q 3128 4100 2886 4159 
Q 2644 4219 2406 4219 
Q 1781 4219 1451 3797 
Q 1122 3375 1075 2522 
Q 1259 2794 1537 2939 
Q 1816 3084 2150 3084 
Q 2853 3084 3261 2657 
Q 3669 2231 3669 1497 
Q 3669 778 3244 343 
Q 2819 -91 2113 -91 
Q 1303 -91 875 529 
Q 447 1150 447 2328 
Q 447 3434 972 4092 
Q 1497 4750 2381 4750 
Q 2619 4750 2861 4703 
Q 3103 4656 3366 4563 
z
" transform="scale(0.015625)"/>
       </defs>
       <use xlink:href="#DejaVuSans-31"/>
       <use xlink:href="#DejaVuSans-36" x="63.623047"/>
      </g>
     </g>
    </g>
    <g id="xtick_6">
     <g id="line2d_6">
      <path d="M 408.528523 273.312 
L 408.528523 7.2 
" clip-path="url(#p8011a5f155)" style="fill: none; stroke: #ffffff; stroke-linecap: round"/>
     </g>
     <g id="text_6">
      <!-- 32 -->
      <g style="fill: #262626" transform="translate(401.529773 291.170281) scale(0.11 -0.11)">
       <defs>
        <path id="DejaVuSans-33" d="M 2597 2516 
Q 3050 2419 3304 2112 
Q 3559 1806 3559 1356 
Q 3559 666 3084 287 
Q 2609 -91 1734 -91 
Q 1441 -91 1130 -33 
Q 819 25 488 141 
L 488 750 
Q 750 597 1062 519 
Q 1375 441 1716 441 
Q 2309 441 2620 675 
Q 2931 909 2931 1356 
Q 2931 1769 2642 2001 
Q 2353 2234 1838 2234 
L 1294 2234 
L 1294 2753 
L 1863 2753 
Q 2328 2753 2575 2939 
Q 2822 3125 2822 3475 
Q 2822 3834 2567 4026 
Q 2313 4219 1838 4219 
Q 1578 4219 1281 4162 
Q 984 4106 628 3988 
L 628 4550 
Q 988 4650 1302 4700 
Q 1616 4750 1894 4750 
Q 2613 4750 3031 4423 
Q 3450 4097 3450 3541 
Q 3450 3153 3228 2886 
Q 3006 2619 2597 2516 
z
" transform="scale(0.015625)"/>
       </defs>
       <use xlink:href="#DejaVuSans-33"/>
       <use xlink:href="#DejaVuSans-32" x="63.623047"/>
      </g>
     </g>
    </g>
    <g id="text_7">
     <!-- Num Workers -->
     <g style="fill: #262626" transform="translate(205.9 306.576062) scale(0.12 -0.12)">
      <defs>
       <path id="DejaVuSans-4e" d="M 628 4666 
L 1478 4666 
L 3547 763 
L 3547 4666 
L 4159 4666 
L 4159 0 
L 3309 0 
L 1241 3903 
L 1241 0 
L 628 0 
L 628 4666 
z
" transform="scale(0.015625)"/>
       <path id="DejaVuSans-75" d="M 544 1381 
L 544 3500 
L 1119 3500 
L 1119 1403 
Q 1119 906 1312 657 
Q 1506 409 1894 409 
Q 2359 409 2629 706 
Q 2900 1003 2900 1516 
L 2900 3500 
L 3475 3500 
L 3475 0 
L 2900 0 
L 2900 538 
Q 2691 219 2414 64 
Q 2138 -91 1772 -91 
Q 1169 -91 856 284 
Q 544 659 544 1381 
z
M 1991 3584 
L 1991 3584 
z
" transform="scale(0.015625)"/>
       <path id="DejaVuSans-6d" d="M 3328 2828 
Q 3544 3216 3844 3400 
Q 4144 3584 4550 3584 
Q 5097 3584 5394 3201 
Q 5691 2819 5691 2113 
L 5691 0 
L 5113 0 
L 5113 2094 
Q 5113 2597 4934 2840 
Q 4756 3084 4391 3084 
Q 3944 3084 3684 2787 
Q 3425 2491 3425 1978 
L 3425 0 
L 2847 0 
L 2847 2094 
Q 2847 2600 2669 2842 
Q 2491 3084 2119 3084 
Q 1678 3084 1418 2786 
Q 1159 2488 1159 1978 
L 1159 0 
L 581 0 
L 581 3500 
L 1159 3500 
L 1159 2956 
Q 1356 3278 1631 3431 
Q 1906 3584 2284 3584 
Q 2666 3584 2933 3390 
Q 3200 3197 3328 2828 
z
" transform="scale(0.015625)"/>
       <path id="DejaVuSans-20" transform="scale(0.015625)"/>
       <path id="DejaVuSans-57" d="M 213 4666 
L 850 4666 
L 1831 722 
L 2809 4666 
L 3519 4666 
L 4500 722 
L 5478 4666 
L 6119 4666 
L 4947 0 
L 4153 0 
L 3169 4050 
L 2175 0 
L 1381 0 
L 213 4666 
z
" transform="scale(0.015625)"/>
       <path id="DejaVuSans-6f" d="M 1959 3097 
Q 1497 3097 1228 2736 
Q 959 2375 959 1747 
Q 959 1119 1226 758 
Q 1494 397 1959 397 
Q 2419 397 2687 759 
Q 2956 1122 2956 1747 
Q 2956 2369 2687 2733 
Q 2419 3097 1959 3097 
z
M 1959 3584 
Q 2709 3584 3137 3096 
Q 3566 2609 3566 1747 
Q 3566 888 3137 398 
Q 2709 -91 1959 -91 
Q 1206 -91 779 398 
Q 353 888 353 1747 
Q 353 2609 779 3096 
Q 1206 3584 1959 3584 
z
" transform="scale(0.015625)"/>
       <path id="DejaVuSans-72" d="M 2631 2963 
Q 2534 3019 2420 3045 
Q 2306 3072 2169 3072 
Q 1681 3072 1420 2755 
Q 1159 2438 1159 1844 
L 1159 0 
L 581 0 
L 581 3500 
L 1159 3500 
L 1159 2956 
Q 1341 3275 1631 3429 
Q 1922 3584 2338 3584 
Q 2397 3584 2469 3576 
Q 2541 3569 2628 3553 
L 2631 2963 
z
" transform="scale(0.015625)"/>
       <path id="DejaVuSans-6b" d="M 581 4863 
L 1159 4863 
L 1159 1991 
L 2875 3500 
L 3609 3500 
L 1753 1863 
L 3688 0 
L 2938 0 
L 1159 1709 
L 1159 0 
L 581 0 
L 581 4863 
z
" transform="scale(0.015625)"/>
       <path id="DejaVuSans-65" d="M 3597 1894 
L 3597 1613 
L 953 1613 
Q 991 1019 1311 708 
Q 1631 397 2203 397 
Q 2534 397 2845 478 
Q 3156 559 3463 722 
L 3463 178 
Q 3153 47 2828 -22 
Q 2503 -91 2169 -91 
Q 1331 -91 842 396 
Q 353 884 353 1716 
Q 353 2575 817 3079 
Q 1281 3584 2069 3584 
Q 2775 3584 3186 3129 
Q 3597 2675 3597 1894 
z
M 3022 2063 
Q 3016 2534 2758 2815 
Q 2500 3097 2075 3097 
Q 1594 3097 1305 2825 
Q 1016 2553 972 2059 
L 3022 2063 
z
" transform="scale(0.015625)"/>
       <path id="DejaVuSans-73" d="M 2834 3397 
L 2834 2853 
Q 2591 2978 2328 3040 
Q 2066 3103 1784 3103 
Q 1356 3103 1142 2972 
Q 928 2841 928 2578 
Q 928 2378 1081 2264 
Q 1234 2150 1697 2047 
L 1894 2003 
Q 2506 1872 2764 1633 
Q 3022 1394 3022 966 
Q 3022 478 2636 193 
Q 2250 -91 1575 -91 
Q 1294 -91 989 -36 
Q 684 19 347 128 
L 347 722 
Q 666 556 975 473 
Q 1284 391 1588 391 
Q 1994 391 2212 530 
Q 2431 669 2431 922 
Q 2431 1156 2273 1281 
Q 2116 1406 1581 1522 
L 1381 1569 
Q 847 1681 609 1914 
Q 372 2147 372 2553 
Q 372 3047 722 3315 
Q 1072 3584 1716 3584 
Q 2034 3584 2315 3537 
Q 2597 3491 2834 3397 
z
" transform="scale(0.015625)"/>
      </defs>
      <use xlink:href="#DejaVuSans-4e"/>
      <use xlink:href="#DejaVuSans-75" x="74.804688"/>
      <use xlink:href="#DejaVuSans-6d" x="138.183594"/>
      <use xlink:href="#DejaVuSans-20" x="235.595703"/>
      <use xlink:href="#DejaVuSans-57" x="267.382812"/>
      <use xlink:href="#DejaVuSans-6f" x="360.384766"/>
      <use xlink:href="#DejaVuSans-72" x="421.566406"/>
      <use xlink:href="#DejaVuSans-6b" x="462.679688"/>
      <use xlink:href="#DejaVuSans-65" x="516.964844"/>
      <use xlink:href="#DejaVuSans-72" x="578.488281"/>
      <use xlink:href="#DejaVuSans-73" x="619.601562"/>
     </g>
    </g>
   </g>
   <g id="matplotlib.axis_2">
    <g id="ytick_1">
     <g id="line2d_7">
      <path d="M 67.64125 263.197501 
L 424.76125 263.197501 
" clip-path="url(#p8011a5f155)" style="fill: none; stroke: #ffffff; stroke-linecap: round"/>
     </g>
     <g id="text_8">
      <!-- 0 -->
      <g style="fill: #262626" transform="translate(51.1425 267.376641) scale(0.11 -0.11)">
       <defs>
        <path id="DejaVuSans-30" d="M 2034 4250 
Q 1547 4250 1301 3770 
Q 1056 3291 1056 2328 
Q 1056 1369 1301 889 
Q 1547 409 2034 409 
Q 2525 409 2770 889 
Q 3016 1369 3016 2328 
Q 3016 3291 2770 3770 
Q 2525 4250 2034 4250 
z
M 2034 4750 
Q 2819 4750 3233 4129 
Q 3647 3509 3647 2328 
Q 3647 1150 3233 529 
Q 2819 -91 2034 -91 
Q 1250 -91 836 529 
Q 422 1150 422 2328 
Q 422 3509 836 4129 
Q 1250 4750 2034 4750 
z
" transform="scale(0.015625)"/>
       </defs>
       <use xlink:href="#DejaVuSans-30"/>
      </g>
     </g>
    </g>
    <g id="ytick_2">
     <g id="line2d_8">
      <path d="M 67.64125 204.224267 
L 424.76125 204.224267 
" clip-path="url(#p8011a5f155)" style="fill: none; stroke: #ffffff; stroke-linecap: round"/>
     </g>
     <g id="text_9">
      <!-- 10000 -->
      <g style="fill: #262626" transform="translate(23.1475 208.403407) scale(0.11 -0.11)">
       <use xlink:href="#DejaVuSans-31"/>
       <use xlink:href="#DejaVuSans-30" x="63.623047"/>
       <use xlink:href="#DejaVuSans-30" x="127.246094"/>
       <use xlink:href="#DejaVuSans-30" x="190.869141"/>
       <use xlink:href="#DejaVuSans-30" x="254.492188"/>
      </g>
     </g>
    </g>
    <g id="ytick_3">
     <g id="line2d_9">
      <path d="M 67.64125 145.251033 
L 424.76125 145.251033 
" clip-path="url(#p8011a5f155)" style="fill: none; stroke: #ffffff; stroke-linecap: round"/>
     </g>
     <g id="text_10">
      <!-- 20000 -->
      <g style="fill: #262626" transform="translate(23.1475 149.430174) scale(0.11 -0.11)">
       <use xlink:href="#DejaVuSans-32"/>
       <use xlink:href="#DejaVuSans-30" x="63.623047"/>
       <use xlink:href="#DejaVuSans-30" x="127.246094"/>
       <use xlink:href="#DejaVuSans-30" x="190.869141"/>
       <use xlink:href="#DejaVuSans-30" x="254.492188"/>
      </g>
     </g>
    </g>
    <g id="ytick_4">
     <g id="line2d_10">
      <path d="M 67.64125 86.277799 
L 424.76125 86.277799 
" clip-path="url(#p8011a5f155)" style="fill: none; stroke: #ffffff; stroke-linecap: round"/>
     </g>
     <g id="text_11">
      <!-- 30000 -->
      <g style="fill: #262626" transform="translate(23.1475 90.45694) scale(0.11 -0.11)">
       <use xlink:href="#DejaVuSans-33"/>
       <use xlink:href="#DejaVuSans-30" x="63.623047"/>
       <use xlink:href="#DejaVuSans-30" x="127.246094"/>
       <use xlink:href="#DejaVuSans-30" x="190.869141"/>
       <use xlink:href="#DejaVuSans-30" x="254.492188"/>
      </g>
     </g>
    </g>
    <g id="ytick_5">
     <g id="line2d_11">
      <path d="M 67.64125 27.304565 
L 424.76125 27.304565 
" clip-path="url(#p8011a5f155)" style="fill: none; stroke: #ffffff; stroke-linecap: round"/>
     </g>
     <g id="text_12">
      <!-- 40000 -->
      <g style="fill: #262626" transform="translate(23.1475 31.483706) scale(0.11 -0.11)">
       <use xlink:href="#DejaVuSans-34"/>
       <use xlink:href="#DejaVuSans-30" x="63.623047"/>
       <use xlink:href="#DejaVuSans-30" x="127.246094"/>
       <use xlink:href="#DejaVuSans-30" x="190.869141"/>
       <use xlink:href="#DejaVuSans-30" x="254.492188"/>
      </g>
     </g>
    </g>
    <g id="text_13">
     <!-- learning_sps -->
     <g style="fill: #262626" transform="translate(16.318125 177.794437) rotate(-90) scale(0.12 -0.12)">
      <defs>
       <path id="DejaVuSans-6c" d="M 603 4863 
L 1178 4863 
L 1178 0 
L 603 0 
L 603 4863 
z
" transform="scale(0.015625)"/>
       <path id="DejaVuSans-61" d="M 2194 1759 
Q 1497 1759 1228 1600 
Q 959 1441 959 1056 
Q 959 750 1161 570 
Q 1363 391 1709 391 
Q 2188 391 2477 730 
Q 2766 1069 2766 1631 
L 2766 1759 
L 2194 1759 
z
M 3341 1997 
L 3341 0 
L 2766 0 
L 2766 531 
Q 2569 213 2275 61 
Q 1981 -91 1556 -91 
Q 1019 -91 701 211 
Q 384 513 384 1019 
Q 384 1609 779 1909 
Q 1175 2209 1959 2209 
L 2766 2209 
L 2766 2266 
Q 2766 2663 2505 2880 
Q 2244 3097 1772 3097 
Q 1472 3097 1187 3025 
Q 903 2953 641 2809 
L 641 3341 
Q 956 3463 1253 3523 
Q 1550 3584 1831 3584 
Q 2591 3584 2966 3190 
Q 3341 2797 3341 1997 
z
" transform="scale(0.015625)"/>
       <path id="DejaVuSans-6e" d="M 3513 2113 
L 3513 0 
L 2938 0 
L 2938 2094 
Q 2938 2591 2744 2837 
Q 2550 3084 2163 3084 
Q 1697 3084 1428 2787 
Q 1159 2491 1159 1978 
L 1159 0 
L 581 0 
L 581 3500 
L 1159 3500 
L 1159 2956 
Q 1366 3272 1645 3428 
Q 1925 3584 2291 3584 
Q 2894 3584 3203 3211 
Q 3513 2838 3513 2113 
z
" transform="scale(0.015625)"/>
       <path id="DejaVuSans-69" d="M 603 3500 
L 1178 3500 
L 1178 0 
L 603 0 
L 603 3500 
z
M 603 4863 
L 1178 4863 
L 1178 4134 
L 603 4134 
L 603 4863 
z
" transform="scale(0.015625)"/>
       <path id="DejaVuSans-67" d="M 2906 1791 
Q 2906 2416 2648 2759 
Q 2391 3103 1925 3103 
Q 1463 3103 1205 2759 
Q 947 2416 947 1791 
Q 947 1169 1205 825 
Q 1463 481 1925 481 
Q 2391 481 2648 825 
Q 2906 1169 2906 1791 
z
M 3481 434 
Q 3481 -459 3084 -895 
Q 2688 -1331 1869 -1331 
Q 1566 -1331 1297 -1286 
Q 1028 -1241 775 -1147 
L 775 -588 
Q 1028 -725 1275 -790 
Q 1522 -856 1778 -856 
Q 2344 -856 2625 -561 
Q 2906 -266 2906 331 
L 2906 616 
Q 2728 306 2450 153 
Q 2172 0 1784 0 
Q 1141 0 747 490 
Q 353 981 353 1791 
Q 353 2603 747 3093 
Q 1141 3584 1784 3584 
Q 2172 3584 2450 3431 
Q 2728 3278 2906 2969 
L 2906 3500 
L 3481 3500 
L 3481 434 
z
" transform="scale(0.015625)"/>
       <path id="DejaVuSans-5f" d="M 3263 -1063 
L 3263 -1509 
L -63 -1509 
L -63 -1063 
L 3263 -1063 
z
" transform="scale(0.015625)"/>
       <path id="DejaVuSans-70" d="M 1159 525 
L 1159 -1331 
L 581 -1331 
L 581 3500 
L 1159 3500 
L 1159 2969 
Q 1341 3281 1617 3432 
Q 1894 3584 2278 3584 
Q 2916 3584 3314 3078 
Q 3713 2572 3713 1747 
Q 3713 922 3314 415 
Q 2916 -91 2278 -91 
Q 1894 -91 1617 61 
Q 1341 213 1159 525 
z
M 3116 1747 
Q 3116 2381 2855 2742 
Q 2594 3103 2138 3103 
Q 1681 3103 1420 2742 
Q 1159 2381 1159 1747 
Q 1159 1113 1420 752 
Q 1681 391 2138 391 
Q 2594 391 2855 752 
Q 3116 1113 3116 1747 
z
" transform="scale(0.015625)"/>
      </defs>
      <use xlink:href="#DejaVuSans-6c"/>
      <use xlink:href="#DejaVuSans-65" x="27.783203"/>
      <use xlink:href="#DejaVuSans-61" x="89.306641"/>
      <use xlink:href="#DejaVuSans-72" x="150.585938"/>
      <use xlink:href="#DejaVuSans-6e" x="189.949219"/>
      <use xlink:href="#DejaVuSans-69" x="253.328125"/>
      <use xlink:href="#DejaVuSans-6e" x="281.111328"/>
      <use xlink:href="#DejaVuSans-67" x="344.490234"/>
      <use xlink:href="#DejaVuSans-5f" x="407.966797"/>
      <use xlink:href="#DejaVuSans-73" x="457.966797"/>
      <use xlink:href="#DejaVuSans-70" x="510.066406"/>
      <use xlink:href="#DejaVuSans-73" x="573.542969"/>
     </g>
    </g>
   </g>
   <g id="LineCollection_1">
    <path d="M 83.873977 261.216 
L 83.873977 260.390375 
" clip-path="url(#p8011a5f155)" style="fill: none; stroke: #4c72b0; stroke-width: 1.5"/>
    <path d="M 94.346705 258.851173 
L 94.346705 257.789655 
" clip-path="url(#p8011a5f155)" style="fill: none; stroke: #4c72b0; stroke-width: 1.5"/>
    <path d="M 115.292159 254.345618 
L 115.292159 251.255421 
" clip-path="url(#p8011a5f155)" style="fill: none; stroke: #4c72b0; stroke-width: 1.5"/>
    <path d="M 157.183068 247.781897 
L 157.183068 244.797852 
" clip-path="url(#p8011a5f155)" style="fill: none; stroke: #4c72b0; stroke-width: 1.5"/>
    <path d="M 240.964886 229.305583 
L 240.964886 225.0831 
" clip-path="url(#p8011a5f155)" style="fill: none; stroke: #4c72b0; stroke-width: 1.5"/>
    <path d="M 408.528523 202.295842 
L 408.528523 192.176035 
" clip-path="url(#p8011a5f155)" style="fill: none; stroke: #4c72b0; stroke-width: 1.5"/>
   </g>
   <g id="LineCollection_2">
    <path d="M 83.873977 258.975017 
L 83.873977 258.114008 
" clip-path="url(#p8011a5f155)" style="fill: none; stroke: #dd8452; stroke-width: 1.5"/>
    <path d="M 94.346705 253.289997 
L 94.346705 252.782828 
" clip-path="url(#p8011a5f155)" style="fill: none; stroke: #dd8452; stroke-width: 1.5"/>
    <path d="M 115.292159 247.53421 
L 115.292159 243.771717 
" clip-path="url(#p8011a5f155)" style="fill: none; stroke: #dd8452; stroke-width: 1.5"/>
    <path d="M 157.183068 234.672147 
L 157.183068 228.350217 
" clip-path="url(#p8011a5f155)" style="fill: none; stroke: #dd8452; stroke-width: 1.5"/>
    <path d="M 240.964886 202.555324 
L 240.964886 191.85758 
" clip-path="url(#p8011a5f155)" style="fill: none; stroke: #dd8452; stroke-width: 1.5"/>
    <path d="M 408.528523 156.420563 
L 408.528523 148.459177 
" clip-path="url(#p8011a5f155)" style="fill: none; stroke: #dd8452; stroke-width: 1.5"/>
   </g>
   <g id="LineCollection_3">
    <path d="M 83.873977 254.894069 
L 83.873977 253.124872 
" clip-path="url(#p8011a5f155)" style="fill: none; stroke: #55a868; stroke-width: 1.5"/>
    <path d="M 94.346705 246.484486 
L 94.346705 241.589708 
" clip-path="url(#p8011a5f155)" style="fill: none; stroke: #55a868; stroke-width: 1.5"/>
    <path d="M 115.292159 224.440291 
L 115.292159 221.951621 
" clip-path="url(#p8011a5f155)" style="fill: none; stroke: #55a868; stroke-width: 1.5"/>
    <path d="M 157.183068 205.191428 
L 157.183068 196.026987 
" clip-path="url(#p8011a5f155)" style="fill: none; stroke: #55a868; stroke-width: 1.5"/>
    <path d="M 240.964886 153.837536 
L 240.964886 144.272077 
" clip-path="url(#p8011a5f155)" style="fill: none; stroke: #55a868; stroke-width: 1.5"/>
    <path d="M 408.528523 85.316535 
L 408.528523 78.617176 
" clip-path="url(#p8011a5f155)" style="fill: none; stroke: #55a868; stroke-width: 1.5"/>
   </g>
   <g id="LineCollection_4">
    <path d="M 83.873977 246.466794 
L 83.873977 243.754025 
" clip-path="url(#p8011a5f155)" style="fill: none; stroke: #c44e52; stroke-width: 1.5"/>
    <path d="M 94.346705 223.897738 
L 94.346705 221.574192 
" clip-path="url(#p8011a5f155)" style="fill: none; stroke: #c44e52; stroke-width: 1.5"/>
    <path d="M 115.292159 198.739756 
L 115.292159 184.668742 
" clip-path="url(#p8011a5f155)" style="fill: none; stroke: #c44e52; stroke-width: 1.5"/>
    <path d="M 157.183068 158.520011 
L 157.183068 145.451542 
" clip-path="url(#p8011a5f155)" style="fill: none; stroke: #c44e52; stroke-width: 1.5"/>
    <path d="M 240.964886 82.120186 
L 240.964886 74.477255 
" clip-path="url(#p8011a5f155)" style="fill: none; stroke: #c44e52; stroke-width: 1.5"/>
    <path d="M 408.528523 27.611226 
L 408.528523 19.296 
" clip-path="url(#p8011a5f155)" style="fill: none; stroke: #c44e52; stroke-width: 1.5"/>
   </g>
   <g id="line2d_12">
    <path d="M 83.873977 260.803187 
L 94.346705 258.320414 
L 115.292159 252.80052 
L 157.183068 246.289875 
L 240.964886 227.194341 
L 408.528523 197.235939 
" clip-path="url(#p8011a5f155)" style="fill: none; stroke: #4c72b0; stroke-width: 1.5; stroke-linecap: round"/>
   </g>
   <g id="line2d_13">
    <path d="M 83.873977 258.544513 
L 94.346705 253.036412 
L 115.292159 245.652964 
L 157.183068 231.511182 
L 240.964886 197.206452 
L 408.528523 152.43987 
" clip-path="url(#p8011a5f155)" style="fill: none; stroke: #dd8452; stroke-width: 1.5; stroke-linecap: round"/>
   </g>
   <g id="line2d_14">
    <path d="M 83.873977 254.009471 
L 94.346705 244.037097 
L 115.292159 223.195956 
L 157.183068 200.609208 
L 240.964886 149.054806 
L 408.528523 81.966856 
" clip-path="url(#p8011a5f155)" style="fill: none; stroke: #55a868; stroke-width: 1.5; stroke-linecap: round"/>
   </g>
   <g id="line2d_15">
    <path d="M 83.873977 245.11041 
L 94.346705 222.735965 
L 115.292159 191.704249 
L 157.183068 151.985776 
L 240.964886 78.29872 
L 408.528523 23.453613 
" clip-path="url(#p8011a5f155)" style="fill: none; stroke: #c44e52; stroke-width: 1.5; stroke-linecap: round"/>
   </g>
   <g id="patch_3">
    <path d="M 67.64125 273.312 
L 67.64125 7.2 
" style="fill: none; stroke: #ffffff; stroke-width: 1.25; stroke-linejoin: miter; stroke-linecap: square"/>
   </g>
   <g id="patch_4">
    <path d="M 424.76125 273.312 
L 424.76125 7.2 
" style="fill: none; stroke: #ffffff; stroke-width: 1.25; stroke-linejoin: miter; stroke-linecap: square"/>
   </g>
   <g id="patch_5">
    <path d="M 67.64125 273.312 
L 424.76125 273.312 
" style="fill: none; stroke: #ffffff; stroke-width: 1.25; stroke-linejoin: miter; stroke-linecap: square"/>
   </g>
   <g id="patch_6">
    <path d="M 67.64125 7.2 
L 424.76125 7.2 
" style="fill: none; stroke: #ffffff; stroke-width: 1.25; stroke-linejoin: miter; stroke-linecap: square"/>
   </g>
   <g id="legend_1">
    <g id="patch_7">
     <path d="M 75.34125 97.6975 
L 140.3675 97.6975 
Q 142.5675 97.6975 142.5675 95.4975 
L 142.5675 14.9 
Q 142.5675 12.7 140.3675 12.7 
L 75.34125 12.7 
Q 73.14125 12.7 73.14125 14.9 
L 73.14125 95.4975 
Q 73.14125 97.6975 75.34125 97.6975 
z
" style="fill: #eaeaf2; opacity: 0.8; stroke: #cccccc; stroke-linejoin: miter"/>
    </g>
    <g id="text_14">
     <!-- Num Envs -->
     <g style="fill: #262626" transform="translate(77.54125 26.218125) scale(0.12 -0.12)">
      <defs>
       <path id="DejaVuSans-45" d="M 628 4666 
L 3578 4666 
L 3578 4134 
L 1259 4134 
L 1259 2753 
L 3481 2753 
L 3481 2222 
L 1259 2222 
L 1259 531 
L 3634 531 
L 3634 0 
L 628 0 
L 628 4666 
z
" transform="scale(0.015625)"/>
       <path id="DejaVuSans-76" d="M 191 3500 
L 800 3500 
L 1894 563 
L 2988 3500 
L 3597 3500 
L 2284 0 
L 1503 0 
L 191 3500 
z
" transform="scale(0.015625)"/>
      </defs>
      <use xlink:href="#DejaVuSans-4e"/>
      <use xlink:href="#DejaVuSans-75" x="74.804688"/>
      <use xlink:href="#DejaVuSans-6d" x="138.183594"/>
      <use xlink:href="#DejaVuSans-20" x="235.595703"/>
      <use xlink:href="#DejaVuSans-45" x="267.382812"/>
      <use xlink:href="#DejaVuSans-6e" x="330.566406"/>
      <use xlink:href="#DejaVuSans-76" x="393.945312"/>
      <use xlink:href="#DejaVuSans-73" x="453.125"/>
     </g>
    </g>
    <g id="LineCollection_5">
     <path d="M 99.955 44.222031 
L 99.955 33.222031 
" style="fill: none; stroke: #4c72b0; stroke-width: 1.5"/>
    </g>
    <g id="line2d_16">
     <path d="M 88.955 38.722031 
L 110.955 38.722031 
" style="fill: none; stroke: #4c72b0; stroke-width: 1.5; stroke-linecap: round"/>
    </g>
    <g id="line2d_17"/>
    <g id="text_15">
     <!-- 1 -->
     <g style="fill: #262626" transform="translate(119.755 42.572031) scale(0.11 -0.11)">
      <use xlink:href="#DejaVuSans-31"/>
     </g>
    </g>
    <g id="LineCollection_6">
     <path d="M 99.955 60.367969 
L 99.955 49.367969 
" style="fill: none; stroke: #dd8452; stroke-width: 1.5"/>
    </g>
    <g id="line2d_18">
     <path d="M 88.955 54.867969 
L 110.955 54.867969 
" style="fill: none; stroke: #dd8452; stroke-width: 1.5; stroke-linecap: round"/>
    </g>
    <g id="line2d_19"/>
    <g id="text_16">
     <!-- 2 -->
     <g style="fill: #262626" transform="translate(119.755 58.717969) scale(0.11 -0.11)">
      <use xlink:href="#DejaVuSans-32"/>
     </g>
    </g>
    <g id="LineCollection_7">
     <path d="M 99.955 76.513906 
L 99.955 65.513906 
" style="fill: none; stroke: #55a868; stroke-width: 1.5"/>
    </g>
    <g id="line2d_20">
     <path d="M 88.955 71.013906 
L 110.955 71.013906 
" style="fill: none; stroke: #55a868; stroke-width: 1.5; stroke-linecap: round"/>
    </g>
    <g id="line2d_21"/>
    <g id="text_17">
     <!-- 4 -->
     <g style="fill: #262626" transform="translate(119.755 74.863906) scale(0.11 -0.11)">
      <use xlink:href="#DejaVuSans-34"/>
     </g>
    </g>
    <g id="LineCollection_8">
     <path d="M 99.955 92.659844 
L 99.955 81.659844 
" style="fill: none; stroke: #c44e52; stroke-width: 1.5"/>
    </g>
    <g id="line2d_22">
     <path d="M 88.955 87.159844 
L 110.955 87.159844 
" style="fill: none; stroke: #c44e52; stroke-width: 1.5; stroke-linecap: round"/>
    </g>
    <g id="line2d_23"/>
    <g id="text_18">
     <!-- 8 -->
     <g style="fill: #262626" transform="translate(119.755 91.009844) scale(0.11 -0.11)">
      <use xlink:href="#DejaVuSans-38"/>
     </g>
    </g>
   </g>
  </g>
 </g>
 <defs>
  <clipPath id="p8011a5f155">
   <rect x="67.64125" y="7.2" width="357.12" height="266.112"/>
  </clipPath>
 </defs>
</svg>
